<?xml version="1.0" encoding="utf-8"?>
<!-- Generator: Adobe Illustrator 17.0.2, SVG Export Plug-In . SVG Version: 6.00 Build 0)  -->
<!DOCTYPE svg PUBLIC "-//W3C//DTD SVG 1.1//EN" "http://www.w3.org/Graphics/SVG/1.1/DTD/svg11.dtd">
<svg version="1.1" id="Layer_1" xmlns="http://www.w3.org/2000/svg" xmlns:xlink="http://www.w3.org/1999/xlink" x="0px" y="0px"
	 width="4647.453px" height="557.292px" viewBox="0 0 4647.453 557.292" enable-background="new 0 0 4647.453 557.292"
	 xml:space="preserve">
<g>
	<g>
		<polygon fill="#967E9C" points="1593.682,287.99 1394.236,0 1194.789,287.99 		"/>
		<polygon fill="#8FA658" points="1858.981,287.99 1659.535,0 1460.088,287.99 		"/>
		<polygon fill="#7A6B84" points="1404.989,287.99 1394.236,0 1194.789,287.99 		"/>
		<polygon fill="#8FA75E" points="1328.383,287.99 1128.937,0 929.49,287.99 		"/>
		<polygon fill="#779771" points="1219.144,287.99 1128.937,0 929.49,287.99 		"/>
		<polygon fill="#6D9E64" points="1641.292,287.99 1659.535,0 1460.088,287.99 		"/>
		<polygon fill="#FFFFFF" points="1613.517,66.446 1627.096,73.464 1644.061,69.802 1675.312,95.914 1705.552,66.446 1659.535,0 		
			"/>
		<polygon fill="#FFFFFF" points="1174.954,66.446 1128.937,0 1159.179,96.548 		"/>
		<polygon fill="#FFFFFF" points="1105.547,86.33 1128.937,73.464 1157.547,99.663 1159.179,96.548 1128.937,0 1082.92,66.446 		"/>
		<polygon opacity="0.1" fill="#779771" enable-background="new    " points="1105.547,86.33 1128.937,73.464 1157.547,99.663 
			1159.179,96.548 1128.937,0 1082.92,66.446 		"/>
		<polygon fill="#FFFFFF" points="1440.253,66.446 1394.236,0 1397.017,74.496 1416.88,59.526 		"/>
		<polygon fill="#FFFFFF" points="1348.219,66.446 1369.547,55.663 1379.547,87.663 1397.017,74.496 1394.236,0 		"/>
		<polygon opacity="0.1" fill="#7A6B84" enable-background="new    " points="1348.219,66.446 1369.547,55.663 1379.547,87.663 
			1397.017,74.496 1394.236,0 		"/>
		<polygon fill="#967E9C" points="1128.937,287.99 929.49,0 730.044,287.99 		"/>
		<polygon fill="#7A6B84" points="940.244,287.99 929.49,0 730.044,287.99 		"/>
		<polygon fill="#FFFFFF" points="975.508,66.446 929.49,0 932.272,74.496 952.135,59.526 		"/>
		<polygon fill="#FFFFFF" points="883.473,66.446 904.801,55.663 914.801,87.663 932.272,74.496 929.49,0 		"/>
		<polygon opacity="0.1" fill="#7A6B84" enable-background="new    " points="883.473,66.446 904.801,55.663 914.801,87.663 
			932.272,74.496 929.49,0 		"/>
		<polygon fill="#967E9C" points="2058.427,287.99 1858.981,0 1659.535,287.99 		"/>
		<polygon fill="#7A6B84" points="1869.734,287.99 1858.981,0 1659.535,287.99 		"/>
		<polygon fill="#FFFFFF" points="1904.998,66.446 1858.981,0 1861.763,74.496 1881.625,59.526 		"/>
		<polygon fill="#FFFFFF" points="1812.964,66.446 1834.292,55.663 1844.292,87.663 1861.763,74.496 1858.981,0 		"/>
		<polygon opacity="0.1" fill="#7A6B84" enable-background="new    " points="1812.964,66.446 1834.292,55.663 1844.292,87.663 
			1861.763,74.496 1858.981,0 		"/>
		<polygon fill="#967E9C" points="2987.918,287.99 2788.471,0 2589.025,287.99 		"/>
		<polygon fill="#7A6B84" points="2799.225,287.99 2788.471,0 2589.025,287.99 		"/>
		<polygon fill="#FFFFFF" points="2834.489,66.446 2788.471,0 2791.253,74.496 2811.115,59.526 		"/>
		<polygon fill="#FFFFFF" points="2742.454,66.446 2763.782,55.663 2773.782,87.663 2791.253,74.496 2788.471,0 		"/>
		<polygon opacity="0.1" fill="#7A6B84" enable-background="new    " points="2742.454,66.446 2763.782,55.663 2773.782,87.663 
			2791.253,74.496 2788.471,0 		"/>
		<polygon fill="#967E9C" points="3917.408,287.99 3717.962,0 3518.515,287.99 		"/>
		<polygon fill="#7A6B84" points="3728.715,287.99 3717.962,0 3518.515,287.99 		"/>
		<polygon fill="#FFFFFF" points="3763.979,66.446 3717.962,0 3720.743,74.496 3740.606,59.526 		"/>
		<polygon fill="#FFFFFF" points="3671.945,66.446 3693.273,55.663 3703.273,87.663 3720.743,74.496 3717.962,0 		"/>
		<polygon opacity="0.1" fill="#7A6B84" enable-background="new    " points="3671.945,66.446 3693.273,55.663 3703.273,87.663 
			3720.743,74.496 3717.962,0 		"/>
		<polygon fill="#FFFFFF" points="1705.552,66.446 1659.534,0 1654.557,78.572 1675.312,95.914 		"/>
		<polygon fill="#FFFFFF" points="1613.517,66.446 1627.096,73.464 1644.061,69.802 1654.557,78.572 1659.534,0 		"/>
		<polygon opacity="0.1" fill="#6D9E64" enable-background="new    " points="1613.517,66.446 1627.096,73.464 1644.061,69.802 
			1654.557,78.572 1659.534,0 		"/>
	</g>
	<g>
		<polygon fill="#967E9C" points="2523.173,287.99 2323.726,0 2124.28,287.99 		"/>
		<polygon fill="#8FA658" points="2788.471,287.99 2589.025,0 2389.579,287.99 		"/>
		<g>
			<g>
				<path fill="#376B89" d="M2108.03,22.343l-0.406-0.404c-3.862-3.86-7.857-0.737-8.024-0.602l-0.689-0.854
					c0.047-0.039,4.645-3.669,9.095,0.306c0.775-0.707,2.599-2.122,4.83-2.172c1.575-0.046,3.022,0.605,4.322,1.905l-0.776,0.776
					c-1.078-1.077-2.266-1.605-3.514-1.584c-2.443,0.052-4.43,2.186-4.45,2.208L2108.03,22.343z"/>
			</g>
		</g>
		<polygon fill="#7A6B84" points="2334.479,287.99 2323.726,0 2124.28,287.99 		"/>
		<polygon fill="#8FA75E" points="2257.874,287.99 2058.427,0 1858.981,287.99 		"/>
		<polygon fill="#779771" points="2148.635,287.99 2058.427,0 1858.981,287.99 		"/>
		<polygon fill="#6D9E64" points="2570.782,287.99 2589.025,0 2389.579,287.99 		"/>
		<polygon fill="#FFFFFF" points="2543.008,66.446 2556.587,73.464 2573.551,69.802 2604.803,95.914 2635.042,66.446 2589.025,0 		
			"/>
		<polygon fill="#FFFFFF" points="2104.445,66.446 2058.427,0 2088.669,96.548 		"/>
		<polygon fill="#FFFFFF" points="2035.037,86.33 2058.427,73.464 2087.037,99.663 2088.669,96.548 2058.427,0 2012.41,66.446 		"/>
		<polygon opacity="0.1" fill="#779771" enable-background="new    " points="2035.037,86.33 2058.427,73.464 2087.037,99.663 
			2088.669,96.548 2058.427,0 2012.41,66.446 		"/>
		<polygon fill="#FFFFFF" points="2369.743,66.446 2323.726,0 2326.508,74.496 2346.37,59.526 		"/>
		<polygon fill="#FFFFFF" points="2277.709,66.446 2299.037,55.663 2309.037,87.663 2326.508,74.496 2323.726,0 		"/>
		<polygon opacity="0.1" fill="#7A6B84" enable-background="new    " points="2277.709,66.446 2299.037,55.663 2309.037,87.663 
			2326.508,74.496 2323.726,0 		"/>
		<polygon fill="#FFFFFF" points="2635.042,66.446 2589.025,0 2584.048,78.572 2604.803,95.914 		"/>
		<polygon fill="#FFFFFF" points="2543.008,66.446 2556.587,73.464 2573.551,69.802 2584.048,78.572 2589.025,0 		"/>
		<polygon opacity="0.1" fill="#6D9E64" enable-background="new    " points="2543.008,66.446 2556.587,73.464 2573.551,69.802 
			2584.048,78.572 2589.025,0 		"/>
	</g>
	<path opacity="0.4" fill="#FFFFFF" stroke="#B3B3B3" stroke-miterlimit="10" enable-background="new    " d="M2298.657,373.411"/>
	<g>
		<polygon fill="#967E9C" points="2523.173,287.99 2323.726,0 2124.28,287.99 		"/>
		<polygon fill="#8FA658" points="2788.471,287.99 2589.025,0 2389.579,287.99 		"/>
		<polygon fill="#7A6B84" points="2334.479,287.99 2323.726,0 2124.28,287.99 		"/>
		<polygon fill="#8FA75E" points="2257.874,287.99 2058.427,0 1858.981,287.99 		"/>
		<polygon fill="#779771" points="2148.635,287.99 2058.427,0 1858.981,287.99 		"/>
		<polygon fill="#6D9E64" points="2570.782,287.99 2589.025,0 2389.579,287.99 		"/>
		<polygon fill="#FFFFFF" points="2543.008,66.446 2556.587,73.464 2573.551,69.802 2604.803,95.914 2635.042,66.446 2589.025,0 		
			"/>
		<polygon fill="#FFFFFF" points="2104.445,66.446 2058.427,0 2088.669,96.548 		"/>
		<polygon fill="#FFFFFF" points="2035.037,86.33 2058.427,73.464 2087.037,99.663 2088.669,96.548 2058.427,0 2012.41,66.446 		"/>
		<polygon opacity="0.1" fill="#779771" enable-background="new    " points="2035.037,86.33 2058.427,73.464 2087.037,99.663 
			2088.669,96.548 2058.427,0 2012.41,66.446 		"/>
		<polygon fill="#FFFFFF" points="2369.743,66.446 2323.726,0 2326.508,74.496 2346.37,59.526 		"/>
		<polygon fill="#FFFFFF" points="2277.709,66.446 2299.037,55.663 2309.037,87.663 2326.508,74.496 2323.726,0 		"/>
		<polygon opacity="0.1" fill="#7A6B84" enable-background="new    " points="2277.709,66.446 2299.037,55.663 2309.037,87.663 
			2326.508,74.496 2323.726,0 		"/>
		<polygon fill="#FFFFFF" points="2635.042,66.446 2589.025,0 2584.048,78.572 2604.803,95.914 		"/>
		<polygon fill="#FFFFFF" points="2543.008,66.446 2556.587,73.464 2573.551,69.802 2584.048,78.572 2589.025,0 		"/>
		<polygon opacity="0.1" fill="#6D9E64" enable-background="new    " points="2543.008,66.446 2556.587,73.464 2573.551,69.802 
			2584.048,78.572 2589.025,0 		"/>
	</g>
	<g>
		<polygon fill="#967E9C" points="3452.663,287.99 3253.217,0 3053.77,287.99 		"/>
		<polygon fill="#8FA658" points="3717.962,287.99 3518.515,0 3319.069,287.99 		"/>
		<polygon fill="#7A6B84" points="3263.97,287.99 3253.217,0 3053.77,287.99 		"/>
		<polygon fill="#8FA75E" points="3187.365,287.99 2987.918,0 2788.471,287.99 		"/>
		<polygon fill="#779771" points="3078.125,287.99 2987.918,0 2788.471,287.99 		"/>
		<polygon fill="#6D9E64" points="3500.273,287.99 3518.515,0 3319.069,287.99 		"/>
		<polygon fill="#FFFFFF" points="3472.498,66.446 3486.077,73.464 3503.042,69.802 3534.293,95.914 3564.533,66.446 3518.515,0 		
			"/>
		<polygon fill="#FFFFFF" points="3033.935,66.446 2987.918,0 3018.16,96.548 		"/>
		<polygon fill="#FFFFFF" points="2964.527,86.33 2987.918,73.464 3016.527,99.663 3018.16,96.548 2987.918,0 2941.901,66.446 		"/>
		<polygon opacity="0.1" fill="#779771" enable-background="new    " points="2964.527,86.33 2987.918,73.464 3016.527,99.663 
			3018.16,96.548 2987.918,0 2941.901,66.446 		"/>
		<polygon fill="#FFFFFF" points="3299.234,66.446 3253.217,0 3255.998,74.496 3275.861,59.526 		"/>
		<polygon fill="#FFFFFF" points="3207.199,66.446 3228.527,55.663 3238.527,87.663 3255.998,74.496 3253.217,0 		"/>
		<polygon opacity="0.1" fill="#7A6B84" enable-background="new    " points="3207.199,66.446 3228.527,55.663 3238.527,87.663 
			3255.998,74.496 3253.217,0 		"/>
		<polygon fill="#FFFFFF" points="3564.533,66.446 3518.515,0 3513.538,78.572 3534.293,95.914 		"/>
		<polygon fill="#FFFFFF" points="3472.498,66.446 3486.077,73.464 3503.042,69.802 3513.538,78.572 3518.515,0 		"/>
		<polygon opacity="0.1" fill="#6D9E64" enable-background="new    " points="3472.498,66.446 3486.077,73.464 3503.042,69.802 
			3513.538,78.572 3518.515,0 		"/>
	</g>
	<g>
		<polygon fill="#967E9C" points="4382.154,287.99 4182.707,0 3983.261,287.99 		"/>
		<polygon fill="#8FA658" points="4647.453,287.99 4448.006,0 4248.56,287.99 		"/>
		<polygon fill="#7A6B84" points="4193.46,287.99 4182.707,0 3983.261,287.99 		"/>
		<polygon fill="#8FA75E" points="4116.855,287.99 3917.408,0 3717.962,287.99 		"/>
		<polygon fill="#779771" points="4007.615,287.99 3917.408,0 3717.962,287.99 		"/>
		<polygon fill="#6D9E64" points="4429.763,287.99 4448.006,0 4248.56,287.99 		"/>
		<polygon fill="#FFFFFF" points="4401.989,66.446 4415.568,73.464 4432.532,69.802 4463.784,95.914 4494.023,66.446 4448.006,0 		
			"/>
		<polygon fill="#FFFFFF" points="3963.426,66.446 3917.408,0 3947.65,96.548 		"/>
		<polygon fill="#FFFFFF" points="3894.018,86.33 3917.408,73.464 3946.018,99.663 3947.65,96.548 3917.408,0 3871.391,66.446 		"/>
		<polygon opacity="0.1" fill="#779771" enable-background="new    " points="3894.018,86.33 3917.408,73.464 3946.018,99.663 
			3947.65,96.548 3917.408,0 3871.391,66.446 		"/>
		<polygon fill="#FFFFFF" points="4228.724,66.446 4182.707,0 4185.489,74.496 4205.351,59.526 		"/>
		<polygon fill="#FFFFFF" points="4136.69,66.446 4158.018,55.663 4168.018,87.663 4185.489,74.496 4182.707,0 		"/>
		<polygon opacity="0.1" fill="#7A6B84" enable-background="new    " points="4136.69,66.446 4158.018,55.663 4168.018,87.663 
			4185.489,74.496 4182.707,0 		"/>
		<polygon fill="#FFFFFF" points="4494.023,66.446 4448.006,0 4443.029,78.572 4463.784,95.914 		"/>
		<polygon fill="#FFFFFF" points="4401.989,66.446 4415.567,73.464 4432.532,69.802 4443.029,78.572 4448.006,0 		"/>
		<polygon opacity="0.1" fill="#6D9E64" enable-background="new    " points="4401.989,66.446 4415.567,73.464 4432.532,69.802 
			4443.029,78.572 4448.006,0 		"/>
	</g>
	<g>
		<polygon fill="#967E9C" points="664.192,287.99 464.745,0 265.299,287.99 		"/>
		<polygon fill="#8FA658" points="929.49,287.99 730.044,0 530.598,287.99 		"/>
		<polygon fill="#7A6B84" points="475.499,287.99 464.745,0 265.299,287.99 		"/>
		<polygon fill="#8FA75E" points="398.893,287.99 199.446,0 0,287.99 		"/>
		<polygon fill="#779771" points="289.654,287.99 199.446,0 0,287.99 		"/>
		<polygon fill="#6D9E64" points="711.801,287.99 730.044,0 530.598,287.99 		"/>
		<polygon fill="#FFFFFF" points="684.027,66.446 697.606,73.464 714.57,69.802 745.822,95.914 776.061,66.446 730.044,0 		"/>
		<polygon fill="#FFFFFF" points="245.464,66.446 199.446,0 229.688,96.548 		"/>
		<polygon fill="#FFFFFF" points="176.056,86.33 199.446,73.464 228.056,99.663 229.688,96.548 199.446,0 153.429,66.446 		"/>
		<polygon opacity="0.1" fill="#779771" enable-background="new    " points="176.056,86.33 199.446,73.464 228.056,99.663 
			229.688,96.548 199.446,0 153.429,66.446 		"/>
		<polygon fill="#FFFFFF" points="510.762,66.446 464.745,0 467.527,74.496 487.389,59.526 		"/>
		<polygon fill="#FFFFFF" points="418.728,66.446 440.056,55.663 450.056,87.663 467.527,74.496 464.745,0 		"/>
		<polygon opacity="0.1" fill="#7A6B84" enable-background="new    " points="418.728,66.446 440.056,55.663 450.056,87.663 
			467.527,74.496 464.745,0 		"/>
		<polygon fill="#FFFFFF" points="776.061,66.446 730.044,0 725.067,78.572 745.822,95.914 		"/>
		<polygon fill="#FFFFFF" points="684.027,66.446 697.606,73.464 714.57,69.802 725.067,78.572 730.044,0 		"/>
		<polygon opacity="0.1" fill="#6D9E64" enable-background="new    " points="684.027,66.446 697.606,73.464 714.57,69.802 
			725.067,78.572 730.044,0 		"/>
	</g>
	<path fill="#BBD43F" d="M1965.726,276.341c0,0,149.646-13.991,211.387-12.966c61.742,1.025,206.323,1.041,272.774-9.785
		c66.45-10.825,60.898-0.597,222.806,16.166c207.903,21.525,351.416-6.578,533.948,3.703c257.979,14.53,400.498-24,561.054-30.775
		c243.613-10.279,879.756,45.305,879.756,45.305v198.244L258.726,443.817L0,284.066c0,0,626.408-12.961,890.408-25.961
		s777.318,0,777.318,0L1965.726,276.341z"/>
	<path fill="#AABE3D" d="M2948.614,287.99c-137.5-11.492-358.161,40.105-628.191-1.088
		c-238.229-36.342-340.232,31.173-426.782,12.616c-193.152-41.413-463.908-35.927-823.215-11.528
		C777.932,307.852,0,284.066,0,284.066v273.226h4647.453V299.138c0,0-693.884-34.027-890.759-1.141
		S3086.114,299.482,2948.614,287.99z"/>
	<path opacity="0.4" fill="#FFFFFF" stroke="#B3B3B3" stroke-miterlimit="10" enable-background="new    " d="M2298.657,373.411"/>
</g>
</svg>
